<svg xmlns="http://www.w3.org/2000/svg" viewBox="0 0 24 24" fill="none" stroke="#4a90e2" stroke-width="2" stroke-linecap="round" stroke-linejoin="round">
  <path d="M12 1v4" />
  <path d="M10 5c-2.2 0-4 1.8-4 4v10" />
  <path d="M14 5c2.2 0 4 1.8 4 4v10" />
  <path d="M18 15c1.1 0 2-.9 2-2V9c0-3.3-2.7-6-6-6h-4C6.7 3 4 5.7 4 9v4c0 1.1.9 2 2 2" />
  <path d="M14 9c0-1.1-.9-2-2-2s-2 .9-2 2v8" />
  <path d="M18 19c1.1 0 2-.9 2-2v-2" />
  <path d="M4 15v2c0 1.1.9 2 2 2" />
  <path d="M14 19c1.1 0 2-.9 2-2v-2" />
</svg> 